<?xml version="1.0" encoding="UTF-8" standalone="no"?>
<svg
   xmlns:dc="http://purl.org/dc/elements/1.1/"
   xmlns:cc="http://creativecommons.org/ns#"
   xmlns:rdf="http://www.w3.org/1999/02/22-rdf-syntax-ns#"
   xmlns:svg="http://www.w3.org/2000/svg"
   xmlns="http://www.w3.org/2000/svg"
   xmlns:sodipodi="http://sodipodi.sourceforge.net/DTD/sodipodi-0.dtd"
   xmlns:inkscape="http://www.inkscape.org/namespaces/inkscape"
   sodipodi:docname="banana.svg"
   inkscape:version="1.0 (4035a4fb49, 2020-05-01)"
   id="svg990"
   version="1.1"
   viewBox="0 0 26.458333 26.458334"
   height="100"
   width="100">
  <defs
     id="defs984" />
  <sodipodi:namedview
     inkscape:window-maximized="1"
     inkscape:window-y="-8"
     inkscape:window-x="-8"
     inkscape:window-height="1017"
     inkscape:window-width="1920"
     units="px"
     showgrid="false"
     inkscape:document-rotation="0"
     inkscape:current-layer="layer5"
     inkscape:document-units="px"
     inkscape:cy="57.010817"
     inkscape:cx="131.54186"
     inkscape:zoom="2.8"
     inkscape:pageshadow="2"
     inkscape:pageopacity="0.0"
     borderopacity="1.0"
     bordercolor="#666666"
     pagecolor="#ffffff"
     id="base" />
  <metadata
     id="metadata987">
    <rdf:RDF>
      <cc:Work
         rdf:about="">
        <dc:format>image/svg+xml</dc:format>
        <dc:type
           rdf:resource="http://purl.org/dc/dcmitype/StillImage" />
        <dc:title />
      </cc:Work>
    </rdf:RDF>
  </metadata>
  <g
     inkscape:label="Layer 3"
     id="layer6"
     inkscape:groupmode="layer">
    <path
       sodipodi:nodetypes="ccccc"
       style="fill:#c8a61e;fill-opacity:1;stroke:none;stroke-width:0.206676px;stroke-linecap:butt;stroke-linejoin:miter;stroke-opacity:1"
       d="m 10.680731,24.835427 c 0,0 11.311003,-10.526589 8.24265,-19.8764765 2.282191,-0.3258949 2.232637,-0.3414979 2.232637,-0.3414979 0,0 9.300655,14.2016304 -8.886578,21.8061714 -1.588709,-1.588197 -1.588709,-1.588197 -1.588709,-1.588197 z"
       id="path994-9-5-1" />
    <path
       sodipodi:nodetypes="ccccc"
       id="path994-9-5-1-3"
       d="m 4.5817966,21.388072 c 0,0 13.8371874,-6.828281 13.7628454,-16.6684852 2.273001,0.384799 2.230555,0.354842 2.230555,0.354842 0,0 4.855568,16.5521892 -14.7837971,18.2550782 C 4.5817966,21.388072 4.5817966,21.388072 4.5817966,21.388072 Z"
       style="fill:#c8a61e;fill-opacity:1;stroke:none;stroke-width:0.206676px;stroke-linecap:butt;stroke-linejoin:miter;stroke-opacity:1" />
    <path
       sodipodi:nodetypes="ccccc"
       style="fill:#c8a61e;fill-opacity:1;stroke:none;stroke-width:0.206676px;stroke-linecap:butt;stroke-linejoin:miter;stroke-opacity:1"
       d="m 1.3293579,16.707423 c 0,0 15.0953981,-3.087396 17.5380561,-12.6198974 2.099204,0.9528585 2.065823,0.9130503 2.065823,0.9130503 0,0 0.464673,17.2434211 -18.9578034,13.8712011 C 1.3293579,16.707423 1.3293579,16.707423 1.3293579,16.707423 Z"
       id="path994-9-5-1-31" />
  </g>
  <g
     style="display:inline"
     id="layer1"
     inkscape:groupmode="layer"
     inkscape:label="Layer 1">
    <path
       id="path994"
       d="m 1.942742,16.576634 c 0,0 13.633322,-4.520918 15.003278,-14.2711588 2.012905,0.7586692 1.978644,0.721968 1.978644,0.721968 0,0 2.001817,17.1872788 -16.1247895,15.6075478 C 1.9792526,16.689307 1.942742,16.576634 1.942742,16.576634 Z"
       style="fill:#ffdd55;stroke:none;stroke-width:0.198788px;stroke-linecap:butt;stroke-linejoin:miter;stroke-opacity:1" />
    <path
       style="fill:#ffdd55;stroke:none;stroke-width:0.206676px;stroke-linecap:butt;stroke-linejoin:miter;stroke-opacity:1"
       d="m 4.9453835,21.148933 c 0,0 13.3099605,-7.845228 12.5164275,-17.6699169 2.292096,0.2280207 2.247629,0.2010158 2.247629,0.2010158 0,0 6.046503,16.2006511 -13.3902406,19.2528401 C 5.0096326,21.249218 4.9453835,21.148933 4.9453835,21.148933 Z"
       id="path994-9" />
    <path
       sodipodi:nodetypes="ccccc"
       id="path994-9-5"
       d="m 11.668847,23.825383 c 0,0 8.16898,-8.657309 8.040593,-20.1453511 2.28219,-0.3258949 2.232636,-0.3414979 2.232636,-0.3414979 0,0 9.666962,14.286405 -8.520271,21.890946 -1.667037,-1.322065 -1.752958,-1.404097 -1.752958,-1.404097 z"
       style="fill:#ffdd55;stroke:none;stroke-width:0.206676px;stroke-linecap:butt;stroke-linejoin:miter;stroke-opacity:1" />
  </g>
  <g
     inkscape:label="Layer 2"
     id="layer5"
     inkscape:groupmode="layer">
    <path
       sodipodi:nodetypes="ccccc"
       id="path1630"
       d="M 16.68925,3.5515953 16.942416,1.3057714 21.12386,0.86535722 22.251429,3.8115652 Z"
       style="fill:#786721;fill-opacity:1;stroke:none;stroke-width:0.337491px;stroke-linecap:butt;stroke-linejoin:miter;stroke-opacity:1" />
    <rect
       transform="rotate(73.379244)"
       y="1.5110338"
       x="16.389614"
       height="1.9940665"
       width="2.2587247"
       id="rect1632"
       style="fill:#786721;fill-opacity:1;stroke:none;stroke-width:0.264583" />
    <rect
       style="fill:#786721;fill-opacity:1;stroke:none;stroke-width:0.287196"
       id="rect1632-8"
       width="2.2874262"
       height="1.9697425"
       x="20.5056"
       y="5.4519606"
       transform="matrix(0.52880585,0.84874282,-0.84369912,0.53681635,0,0)" />
    <rect
       transform="matrix(0.70722077,0.70699277,-0.69950972,0.71462309,0,0)"
       y="7.9817138"
       x="25.006704"
       height="2.0317714"
       width="2.246413"
       id="rect1632-8-3"
       style="fill:#786721;fill-opacity:1;stroke:none;stroke-width:0.279286" />
    <ellipse
       transform="rotate(4.555312)"
       style="fill:#ffffff;stroke-width:0.300095"
       id="path842"
       cx="22.650568"
       cy="8.8596249"
       rx="0.8976934"
       ry="1.842634" />
  </g>
</svg>
